# xmcd
#
# Track frame offsets: 
#        150
#        17514
#        33519
#        50985
#        64888
#        85226
#        102371
#        117509
#        135584
#        152048
#        168929
#        182391
#        197452
#        211621
#        228815
#        254301
#        271901
#        291009
#        306242
#        337651
#
# Disc length: 4732 seconds
#
# Revision: 0
# Processed by: cddbd v1.5.2PL0 Copyright (c) Steve Scherf et al.
# Submitted via: ExactAudioCopy v1.0b3
#
DISCID=0b127a14
DTITLE=Various Artist - 100x New Wave [CD 1)
DYEAR=2014
DGENRE=New Wave
TTITLE0=Siouxsie And The Banshees - Happy House
TTITLE1=Cure - Let's Go To Bed
TTITLE2=Joy Division - She's Lost Control
TTITLE3=Department S - Is Vic There?
TTITLE4=Fad Gadget - Coitus Interruptus
TTITLE5=Visage - Fade To Grey
TTITLE6=Normal - Warm Leatherette
TTITLE7=Killing Joke - Turn To Red
TTITLE8=Virgin Prunes - Baby Turns Blue
TTITLE9=Ball, Dave - In Strict Tempo
TTITLE10=Crash Course In Science - Flying Turns
TTITLE11=No More - Suicide Commando
TTITLE12=Beating My Head - Red Lorry Yellow Lorry
TTITLE13=Gimme Gimme Gimme - Leather Nun
TTITLE14=Mission - Wasteland
TTITLE15=Cult - Rain
TTITLE16=Sound - Winning
TTITLE17=Cocteau Twins - Peppermint Pig
TTITLE18=New Order - Temptation
TTITLE19=Bauhaus - She's In Parties
EXTD=
EXTT0=
EXTT1=
EXTT2=
EXTT3=
EXTT4=
EXTT5=
EXTT6=
EXTT7=
EXTT8=
EXTT9=
EXTT10=
EXTT11=
EXTT12=
EXTT13=
EXTT14=
EXTT15=
EXTT16=
EXTT17=
EXTT18=
EXTT19=
PLAYORDER=
